<svg width="33" height="30" viewBox="0 0 33 30" fill="none" xmlns="http://www.w3.org/2000/svg">
<path d="M20.4397 25.8207V16.1346C20.4397 15.8135 20.302 15.5055 20.0569 15.2785C19.8118 15.0514 19.4794 14.9238 19.1327 14.9238H13.9047C13.558 14.9238 13.2256 15.0514 12.9805 15.2785C12.7354 15.5055 12.5977 15.8135 12.5977 16.1346V25.8207" stroke="black" stroke-width="2" stroke-linecap="round" stroke-linejoin="round"/>
<path d="M4.75586 12.5019C4.75577 12.1496 4.83864 11.8016 4.99869 11.4821C5.15873 11.1625 5.39211 10.8792 5.68253 10.6518L14.8316 3.38847C15.3034 3.01907 15.9012 2.81641 16.519 2.81641C17.1367 2.81641 17.7345 3.01907 18.2063 3.38847L27.3554 10.6518C27.6458 10.8792 27.8792 11.1625 28.0392 11.4821C28.1993 11.8016 28.2822 12.1496 28.2821 12.5019V23.3987C28.2821 24.041 28.0067 24.6569 27.5164 25.111C27.0262 25.5651 26.3613 25.8203 25.668 25.8203H7.36988C6.6766 25.8203 6.01171 25.5651 5.52149 25.111C5.03126 24.6569 4.75586 24.041 4.75586 23.3987V12.5019Z" stroke="black" stroke-width="2" stroke-linecap="round" stroke-linejoin="round"/>
</svg>
