<svg width="33" height="30" viewBox="0 0 33 30" fill="none" xmlns="http://www.w3.org/2000/svg">
<path d="M20.4401 3.20117H12.598C11.8762 3.20117 11.291 3.74325 11.291 4.41193V6.83346C11.291 7.50214 11.8762 8.04422 12.598 8.04422H20.4401C21.1619 8.04422 21.7471 7.50214 21.7471 6.83346V4.41193C21.7471 3.74325 21.1619 3.20117 20.4401 3.20117Z" stroke="black" stroke-width="2" stroke-linecap="round" stroke-linejoin="round"/>
<path d="M21.7466 5.62305H24.3607C25.0539 5.62305 25.7188 5.87817 26.2091 6.33229C26.6993 6.78642 26.9747 7.40234 26.9747 8.04457V24.9952C26.9747 25.6375 26.6993 26.2534 26.2091 26.7075C25.7188 27.1616 25.0539 27.4168 24.3607 27.4168H8.67652C7.98324 27.4168 7.31835 27.1616 6.82813 26.7075C6.33791 26.2534 6.0625 25.6375 6.0625 24.9952V8.04457C6.0625 7.40234 6.33791 6.78642 6.82813 6.33229C7.31835 5.87817 7.98324 5.62305 8.67652 5.62305H11.2905" stroke="black" stroke-width="2" stroke-linecap="round" stroke-linejoin="round"/>
<path d="M16.5176 14.0977H21.7456" stroke="black" stroke-width="2" stroke-linecap="round" stroke-linejoin="round"/>
<path d="M16.5176 20.1523H21.7456" stroke="black" stroke-width="2" stroke-linecap="round" stroke-linejoin="round"/>
<path d="M11.291 14.0977H11.3033" stroke="black" stroke-width="2" stroke-linecap="round" stroke-linejoin="round"/>
<path d="M11.291 20.1523H11.3033" stroke="black" stroke-width="2" stroke-linecap="round" stroke-linejoin="round"/>
</svg>
